<svg width="25" height="31" viewBox="0 0 25 31" fill="none" xmlns="http://www.w3.org/2000/svg">
<path d="M23.1665 23.8894L23.6998 24.6001C23.7741 24.6991 23.8194 24.8169 23.8305 24.9402C23.8416 25.0635 23.8182 25.1875 23.7628 25.2982C23.7074 25.409 23.6223 25.5021 23.517 25.5672C23.4117 25.6323 23.2903 25.6667 23.1665 25.6667H1.83317C1.70936 25.6667 1.588 25.6323 1.48268 25.5672C1.37737 25.5021 1.29225 25.409 1.23689 25.2982C1.18152 25.1875 1.15808 25.0635 1.1692 24.9402C1.18032 24.8169 1.22555 24.6991 1.29984 24.6001L1.83317 23.8894V12.3334C1.83317 9.50444 2.95698 6.79133 4.95737 4.79094C6.95775 2.79055 9.67086 1.66675 12.4998 1.66675C15.3288 1.66675 18.0419 2.79055 20.0423 4.79094C22.0427 6.79133 23.1665 9.50444 23.1665 12.3334V23.8894ZM9.1665 27.0001H15.8332C15.8332 27.8841 15.482 28.732 14.8569 29.3571C14.2317 29.9822 13.3839 30.3334 12.4998 30.3334C11.6158 30.3334 10.7679 29.9822 10.1428 29.3571C9.51769 28.732 9.1665 27.8841 9.1665 27.0001Z" stroke="black" stroke-width="2"/>
</svg>
