<svg width="25" height="31" viewBox="0 0 25 31" fill="none" xmlns="http://www.w3.org/2000/svg">
<path d="M23 23.2227L23.5333 23.9333C23.6076 24.0324 23.6529 24.1502 23.664 24.2735C23.6751 24.3968 23.6517 24.5207 23.5963 24.6315C23.5409 24.7422 23.4558 24.8353 23.3505 24.9004C23.2452 24.9655 23.1238 25 23 25H1.66667C1.54286 25 1.4215 24.9655 1.31618 24.9004C1.21086 24.8353 1.12575 24.7422 1.07038 24.6315C1.01501 24.5207 0.991575 24.3968 1.00269 24.2735C1.01381 24.1502 1.05905 24.0324 1.13333 23.9333L1.66667 23.2227V11.6667C1.66667 8.83769 2.79047 6.12458 4.79086 4.12419C6.79125 2.12381 9.50436 1 12.3333 1C15.1623 1 17.8754 2.12381 19.8758 4.12419C21.8762 6.12458 23 8.83769 23 11.6667V23.2227ZM9 26.3333H15.6667C15.6667 27.2174 15.3155 28.0652 14.6904 28.6904C14.0652 29.3155 13.2174 29.6667 12.3333 29.6667C11.4493 29.6667 10.6014 29.3155 9.97631 28.6904C9.35119 28.0652 9 27.2174 9 26.3333Z" fill="#4D55F5" stroke="#4D55F5" stroke-width="2"/>
</svg>
