<svg width="27" height="28" viewBox="0 0 27 28" fill="none" xmlns="http://www.w3.org/2000/svg">
<path fill-rule="evenodd" clip-rule="evenodd" d="M17.8907 2.39038C18.3908 1.89046 19.0689 1.60962 19.776 1.60962C20.4831 1.60962 21.1613 1.89046 21.6614 2.39038L25.1094 5.83838C25.6093 6.33846 25.8901 7.01661 25.8901 7.72372C25.8901 8.43082 25.6093 9.10898 25.1094 9.60905L22.9947 11.7237L15.776 4.50505L17.8907 2.39038ZM13.8907 6.39038L1.89071 18.3904C1.39058 18.8904 1.10953 19.5685 1.10938 20.2757V23.7237C1.10938 24.431 1.39033 25.1092 1.89042 25.6093C2.39052 26.1094 3.0688 26.3904 3.77604 26.3904H7.22404C7.93123 26.3902 8.60939 26.1092 9.10937 25.609L21.1094 13.609L13.8907 6.39038Z" stroke="black" stroke-width="2"/>
</svg>
